<?xml version="1.0" encoding="utf-8"?>
<!-- Generator: Adobe Illustrator 19.1.0, SVG Export Plug-In . SVG Version: 6.00 Build 0)  -->
<svg version="1.1" id="Capa_1" xmlns="http://www.w3.org/2000/svg" xmlns:xlink="http://www.w3.org/1999/xlink" x="0px" y="0px"
	 viewBox="-625 350.6 100 100" style="enable-background:new -625 350.6 100 100;" xml:space="preserve">
<style type="text/css">
	.st0{fill:#A0A0A0;}
</style>
<path class="st0" d="M-600.5,409.4c1.6,0,2.9-1,3.5-2.2l18,4.5v0.2c0,2.2,1.8,4,4,4s4-1.8,4-4c0-0.6-0.2-1.4-0.5-1.9l19.6-17.2
	c0.6,0.5,1.4,0.8,2.4,0.8c2.2,0,4-1.8,4-4c0-2.2-1.8-4-4-4c-2.2,0-4,1.8-4,4c0,0.6,0.2,1.4,0.5,1.9l-19.6,17.2
	c-0.6-0.5-1.4-0.8-2.4-0.8c-1.6,0-2.9,1-3.5,2.2l-18-4.5v-0.2c0-2.2-1.8-4-4-4c-2.2,0-4,1.8-4,4S-602.8,409.4-600.5,409.4z"/>
</svg>
