<?xml version="1.0" encoding="utf-8"?>
<!-- Generator: Adobe Illustrator 19.1.0, SVG Export Plug-In . SVG Version: 6.00 Build 0)  -->
<svg version="1.1" id="Capa_1" xmlns="http://www.w3.org/2000/svg" xmlns:xlink="http://www.w3.org/1999/xlink" x="0px" y="0px"
	 viewBox="0 0 100 100" style="enable-background:new 0 0 100 100;" xml:space="preserve">
<style type="text/css">
	.st0{fill:#1E62AA;}
</style>
<g>
	<path class="st0" d="M50,13.4c-8.8,0-15.9,7.1-15.9,15.9c0,8.8,7.1,15.9,15.9,15.9c8.8,0,15.9-7.1,15.9-15.9
		C65.9,20.5,58.8,13.4,50,13.4z M55.4,32.1c0,2.4-1.6,4-4,4.4v1.9h-3.2l0-2c-1.9-0.3-3.5-1.5-3.5-1.5l1.8-2.4c0,0,1.6,1.3,3.7,1.3
		c1.3,0,2.1-0.5,2.1-1.4v0c0-0.8-0.5-1.2-2.9-1.8c-2.9-0.7-4.8-1.5-4.8-4.4v0c0-2.2,1.4-3.7,3.6-4.2v-1.7l3.2,0v1.7
		c1.7,0.2,2.8,1.1,2.8,1.1l-1.6,2.5c0,0-1.3-1-3-1c-1.2,0-1.8,0.6-1.8,1.3v0c0,0.9,0.6,1.3,3.1,1.9C53.8,28.5,55.4,29.5,55.4,32.1
		L55.4,32.1L55.4,32.1z"/>
	<path class="st0" d="M50,13.4c-8.8,0-15.9,7.1-15.9,15.9c0,8.8,7.1,15.9,15.9,15.9c8.8,0,15.9-7.1,15.9-15.9
		C65.9,20.5,58.8,13.4,50,13.4z M55.4,32.1c0,2.4-1.6,4-4,4.4v1.9h-3.2l0-2c-1.9-0.3-3.5-1.5-3.5-1.5l1.8-2.4c0,0,1.6,1.3,3.7,1.3
		c1.3,0,2.1-0.5,2.1-1.4v0c0-0.8-0.5-1.2-2.9-1.8c-2.9-0.7-4.8-1.5-4.8-4.4v0c0-2.2,1.4-3.7,3.6-4.2v-1.7l3.2,0v1.7
		c1.7,0.2,2.8,1.1,2.8,1.1l-1.6,2.5c0,0-1.3-1-3-1c-1.2,0-1.8,0.6-1.8,1.3v0c0,0.9,0.6,1.3,3.1,1.9C53.8,28.5,55.4,29.5,55.4,32.1
		L55.4,32.1L55.4,32.1z"/>
	<g>
		<path class="st0" d="M56.1,64.4H61c1.2,0,2.3-0.5,3.2-1.3l20.3-20.3l0,0c1.8-1.8,4.7-1.8,6.5,0c1.8,1.8,1.8,4.7,0,6.5l0,0
			L64.5,75.7c-0.8,0.8-2,1.3-3.2,1.3c-0.2,0-0.4,0-0.6,0l-24.2,0c-0.1,0-0.2,0-0.3,0l0,0c-0.7,0-4.8,0-5.4,0c-0.6,0-1.2,0.2-1.7,0.7
			l-8.9,8.9H7.8c0-0.2,0-14.9,0-14.9c0-1.2,0.4-2.4,1.3-3.3l14.4-14.3c0,0,0,0,0.1-0.1l0.3-0.3h0c2.7-2.6,6.6-3.3,10.6-3.3l21.4,0
			c2.5,0,4.6,2,4.6,4.6c0,2.5-2,4.6-4.6,4.6v0l-16.8,0c-1.3,0-2.4,1.1-2.4,2.4c0,1.3,1.1,2.4,2.4,2.4l14.2,0H56.1z"/>
	</g>
</g>
</svg>
