<?xml version="1.0" encoding="utf-8"?>
<!-- Generator: Adobe Illustrator 19.1.0, SVG Export Plug-In . SVG Version: 6.00 Build 0)  -->
<svg version="1.1"
	 id="Capa_1" xmlns:rdf="http://www.w3.org/1999/02/22-rdf-syntax-ns#" xmlns:svg="http://www.w3.org/2000/svg" xmlns:inkscape="http://www.inkscape.org/namespaces/inkscape" xmlns:cc="http://creativecommons.org/ns#" xmlns:sodipodi="http://sodipodi.sourceforge.net/DTD/sodipodi-0.dtd" xmlns:dc="http://purl.org/dc/elements/1.1/"
	 xmlns="http://www.w3.org/2000/svg" xmlns:xlink="http://www.w3.org/1999/xlink" x="0px" y="0px" viewBox="-568.5 370.8 53.7 59.5"
	 style="enable-background:new -568.5 370.8 53.7 59.5;" xml:space="preserve">
<g transform="translate(0,-952.36218)">
	<path d="M-555.3,1331.4c-0.2,0-0.4,0.3-0.4,0.5v42.1c0,0.3,0.2,0.5,0.5,0.5h22c0.3,0,0.5-0.2,0.5-0.5v-15.5h10
		c0.3,0,0.5-0.2,0.5-0.5v-12c0-0.3-0.2-0.5-0.5-0.5h-10V1332c0-0.3-0.2-0.5-0.5-0.5L-555.3,1331.4
		C-555.3,1331.4-555.3,1331.4-555.3,1331.4L-555.3,1331.4z M-554.8,1332.4h21v4h-21V1332.4z M-554.8,1337.4h21v8h-11h-0.1
		c-0.2,0-0.4,0.3-0.4,0.5v12c0,0.3,0.2,0.5,0.5,0.5h11v8h-21V1337.4z M-543,1346.4h18.6l-9.3,5.9L-543,1346.4z M-544.3,1346.8
		l10.2,6.5c0.2,0.1,0.4,0.1,0.5,0l10.2-6.5v10.6h-21L-544.3,1346.8L-544.3,1346.8z M-554.8,1367.4h21v6h-21V1367.4z M-549.5,1369.9
		c-0.3,0-0.5,0.3-0.5,0.5c0,0.3,0.3,0.5,0.5,0.5h10c0.3,0,0.5-0.2,0.5-0.5s-0.2-0.5-0.5-0.5l0,0H-549.5
		C-549.3,1369.9-549.3,1369.9-549.5,1369.9z"/>
</g>
</svg>
