<?xml version="1.0" encoding="utf-8"?>
<!-- Generator: Adobe Illustrator 19.1.0, SVG Export Plug-In . SVG Version: 6.00 Build 0)  -->
<svg version="1.1" id="Capa_1" xmlns="http://www.w3.org/2000/svg" xmlns:xlink="http://www.w3.org/1999/xlink" x="0px" y="0px"
	 viewBox="-589 346.1 100 100" style="enable-background:new -589 346.1 100 100;" xml:space="preserve">
<style type="text/css">
	.st0{fill:#A0A0A0;}
</style>
<path class="st0" d="M-502.3,361.6c0-1.3-1.6-1.9-2.5-1.9l-0.3,0l-0.9,0l-0.5,0c-1,0-1.7,0.5-2.4,1c-0.6,0.4-1.2,0.8-1.9,0.8
	c-0.7,0-1.3-0.5-2-1c-0.7-0.5-1.4-1.1-2.3-1.1c-8.4,0-13.3,0.1-15.9,2.2c-2.3,1.9-6.2,5.3-7.6,6.6c-0.2,0.2-0.7,0.7-0.5,1.3
	c0.1,0.1,0.3,0.6,0.9,0.6c0.4,0,0.9-0.1,1.9-0.4c1.7-0.5,4.2-1.2,6.6-1.2c3.3,0,4.9,1.4,5,4.2l0,3.2v53.6c0,1.9,1.5,3.5,3.4,3.5h0
	l3.3,0c1.9,0,3.4-1.6,3.4-3.5v-53.6c0-3.2,0.6-7.1,3.7-7.3c0.6,0,1.2,0.5,1.8,1.1c0.6,0.6,1.3,1.2,2.2,1.2l0.9,0l0.7,0
	c0.8,0,1.7-0.5,2.2-1.1c0.4-0.4,0.6-0.8,0.6-1.2C-502.3,367.9-502.3,361.6-502.3,361.6z M-517.8,431.2h-3.3c-1,0-1.8-0.8-1.8-1.9
	v-52.7h7v52.7C-516,430.3-516.8,431.2-517.8,431.2z M-503.9,368.4c-0.2,0.3-0.8,0.7-1.2,0.7l-0.7,0l-0.9,0c-0.2,0-0.7-0.4-1.1-0.8
	c-0.7-0.7-1.6-1.5-2.8-1.5l-0.1,0c-2.3,0.1-5,1.7-5.2,8.1h-7l0-2.5c-0.2-2.6-1.4-5.7-6.6-5.7c-2.1,0-4.4,0.5-6.1,1
	c1.7-1.5,4.1-3.6,5.7-4.9c2.2-1.8,7.8-1.8,14.8-1.8c0.3,0,0.9,0.4,1.3,0.8c0.8,0.6,1.7,1.3,3,1.3c1.2,0,2.1-0.6,2.8-1.1
	c0.5-0.4,1-0.7,1.5-0.7l0.5,0l0.9,0l0.2,0c0.3,0,0.8,0.2,0.9,0.4C-503.9,361.6-503.9,367.5-503.9,368.4z"/>
<path class="st0" d="M-558,360.1c-1.2-0.9-2.2-0.9-2.8-0.2c-0.3,0.4-0.5,1.1-0.3,1.8c0.1,0.3,0.2,0.9,0.4,1.7c0.4,1.7,0.9,4,1.2,5.3
	c0.4,1.6,0.3,2.9-0.3,3.8c-0.6,0.9-1.7,1.5-3.4,1.8c-0.7,0.1-1.4,0.2-1.9,0.2c-2.8,0-3.2-1.4-3.6-2.8l-0.1-0.3
	c-0.5-1.7-1.8-6.4-1.9-7c-0.2-0.8-1-1.4-1.9-1.4c-0.4,0-1.3,0.1-1.7,1.3c-0.4,1-2.9,11.7,0.1,16.6c1,1.6,2,2.6,2.9,3.6
	c1.7,1.7,2.9,2.9,2.9,6.7l0,36.5c0,2.8,2.2,5,5,5c2.8,0,5-2.2,5-5l0-37.3l0-0.4c0-2.1,0-4.9,2.1-6.3c5.3-3.4,7.1-7.6,5.4-13.1
	C-552.2,366.6-556.3,361.4-558,360.1z M-557.2,382.5c-2.9,1.8-2.8,5.3-2.8,7.6l0,0.4l0,37.3c0,1.9-1.5,3.4-3.4,3.4
	c-1.9,0-3.4-1.5-3.4-3.4l0-36.5c0-4.4-1.6-6.1-3.4-7.8c-0.9-0.9-1.8-1.8-2.7-3.3c-2.5-4-0.4-13.9,0.1-15.2c0.1-0.2,0.1-0.3,0.2-0.3
	c0.1,0,0.3,0.1,0.3,0.2c0.1,0.7,1.4,5.5,1.9,7.1l0.1,0.3c0.4,1.5,1.2,3.9,5.1,3.9c0.7,0,1.4-0.1,2.2-0.2c2.1-0.4,3.6-1.2,4.4-2.5
	c0.8-1.3,1-3,0.5-5.1c-0.3-1.2-0.8-3.6-1.2-5.2c-0.2-0.8-0.3-1.4-0.4-1.7c0-0.1,0-0.2,0-0.3c0.1,0,0.3,0.1,0.6,0.3
	c1.5,1.1,5.4,6.2,6.5,9.8C-551,375.9-552.5,379.5-557.2,382.5z"/>
<circle class="st0" cx="-563.4" cy="427.7" r="1.6"/>
</svg>
