<?xml version="1.0" encoding="utf-8"?>
<!-- Generator: Adobe Illustrator 19.1.0, SVG Export Plug-In . SVG Version: 6.00 Build 0)  -->
<svg version="1.1" id="Capa_1" xmlns="http://www.w3.org/2000/svg" xmlns:xlink="http://www.w3.org/1999/xlink" x="0px" y="0px"
	 viewBox="-559.5 369.9 34.1 32.9" style="enable-background:new -559.5 369.9 34.1 32.9;" xml:space="preserve">
<style type="text/css">
	.st0{fill:#0282C9;}
	.st1{enable-background:new    ;}
</style>
<title>2459-Brandfex-Icons-for-nounproject-vector</title>
<path class="st0" d="M-546.5,399.5v-9c0-0.2,0.1-0.4,0.3-0.5c0.2-0.1,0.5-0.1,0.7,0l7,4.5c0.2,0.1,0.3,0.3,0.3,0.5
	c0,0.2-0.1,0.4-0.3,0.5l-7,4.5c-0.1,0.1-0.2,0.1-0.3,0.1c-0.1,0-0.2,0-0.3-0.1C-546.4,400-546.5,399.7-546.5,399.5z"/>
<text transform="matrix(1 0 0 1 -639.7657 484.7698)" style="font-family:'HelveticaNeue-Bold'; font-size:5px;">Created by Augsten Grafik</text>
<text transform="matrix(1 0 0 1 -639.7657 489.7698)" style="font-family:'HelveticaNeue-Bold'; font-size:5px;">from the Noun Project</text>
</svg>
