<?xml version="1.0" encoding="utf-8"?>
<!-- Generator: Adobe Illustrator 19.1.0, SVG Export Plug-In . SVG Version: 6.00 Build 0)  -->
<svg version="1.1" id="Capa_1" xmlns="http://www.w3.org/2000/svg" xmlns:xlink="http://www.w3.org/1999/xlink" x="0px" y="0px"
	 viewBox="0 0 100 100" style="enable-background:new 0 0 100 100;" xml:space="preserve">
<style type="text/css">
	.st0{fill:#CCCCCC;}
</style>
<g>
	<path class="st0" d="M86.5,44.4c2.3-1.4,3.9-3.9,3.9-6.8c0-4.4-3.6-8-8-8s-8,3.6-8,8c0,2.9,1.6,5.5,3.9,6.8
		c-5.9,1.7-10.3,6.7-10.9,13c-3.1-2.8-7-4.8-11.3-5.8c5.6-2.3,9.4-7.7,9.4-14.1c0-8.4-6.8-15.1-15.1-15.1s-15.1,6.8-15.1,15.2
		c0,6.3,3.9,11.7,9.4,14.1c-4.3,0.9-8.1,2.9-11.3,5.8c-0.6-6.2-5-11.3-10.9-13c2.3-1.4,3.9-3.9,3.9-6.8c0-4.4-3.6-8-8-8s-8,3.6-8,8
		c0,2.9,1.6,5.5,3.9,6.8c-6.3,1.8-11,7.7-11,14.6c0,0.5,0.4,0.8,0.8,0.8c0.5,0,0.8-0.4,0.8-0.8c0-7.3,6-13.3,13.3-13.3
		s13.3,6,13.3,13.3l0,0c-4.4,4.6-7.1,10.9-7.1,17.7c0,0.5,0.4,0.8,0.8,0.8c0.5,0,0.8-0.4,0.8-0.8c0-13.2,10.8-24,24-24
		s24,10.8,24,24c0,0.5,0.4,0.8,0.8,0.8c0.5,0,0.8-0.4,0.8-0.8c0-6.9-2.7-13.1-7.1-17.7l0,0c0-7.3,6-13.3,13.3-13.3s13.3,6,13.3,13.3
		c0,0.5,0.4,0.8,0.8,0.8c0.5,0,0.8-0.4,0.8-0.8C97.5,52.1,92.9,46.3,86.5,44.4z M12,37.7c0-3.5,2.8-6.2,6.2-6.2s6.2,2.8,6.2,6.2
		c0,3.5-2.8,6.2-6.2,6.2S12,41.1,12,37.7z M37,37.7c0-7.3,6-13.3,13.3-13.3s13.3,6,13.3,13.3S57.6,51,50.3,51
		C42.9,50.9,37,44.9,37,37.7z M76.1,37.7c0-3.5,2.8-6.2,6.2-6.2s6.2,2.8,6.2,6.2c0,3.5-2.8,6.2-6.2,6.2S76.1,41.1,76.1,37.7z"/>
</g>
</svg>
