<?xml version="1.0" encoding="utf-8"?>
<!-- Generator: Adobe Illustrator 19.1.0, SVG Export Plug-In . SVG Version: 6.00 Build 0)  -->
<svg version="1.1" id="Capa_1" xmlns="http://www.w3.org/2000/svg" xmlns:xlink="http://www.w3.org/1999/xlink" x="0px" y="0px"
	 viewBox="40 -52 100 104.8" style="enable-background:new 40 -52 100 104.8;" xml:space="preserve">
<style type="text/css">
	.st0{enable-background:new    ;}
	.st1{fill:none;stroke:#FFFFFF;stroke-miterlimit:10;}
	.st2{fill:none;}
	.st3{stroke:#FFFFFF;stroke-miterlimit:10;}
	.st4{fill:#CCCCCC;}
</style>
<g>
	<rect x="-152" y="-52" width="185" height="99"/>
	<rect x="40" y="-88" width="100" height="30"/>
	<text transform="matrix(1 0 0 1 106 -71.5)" style="font-family:'Helvetica'; font-size:2.4px;">http://thenounproject.com</text>
	<text transform="matrix(1 0 0 1 47.166 -76.5)" style="font-family:'Helvetica-Bold'; font-size:6.1578px;">The Noun Project</text>
	<text transform="matrix(1 0 0 1 48.286 -71.7)" style="font-family:'Helvetica-Bold'; font-size:4px;">Icon Template</text>
	<text transform="matrix(1 0 0 1 -138.5 -41.5)" style="font-family:'Helvetica-Bold'; font-size:6.1578px;">Reminders</text>
	<line class="st1" x1="48" y1="-66.5" x2="58" y2="-66.5"/>
	<line class="st1" x1="-139" y1="-35.5" x2="-122" y2="-35.5"/>
	<g>
		<g>
			<g>
				<rect x="-130.8" y="-20.7" width="8.7" height="8.6"/>
				<path d="M-124.5-9.7h4.7v-4.7h-4.7V-9.7z M-119.3-9.3h-5.6v-5.6h5.6V-9.3L-119.3-9.3z M-126.2-7.9h8.3v-8.2h-8.3V-7.9
					L-126.2-7.9z M-117.5-7.5h-9.2v-9.1h9.2V-7.5L-117.5-7.5z"/>
				<polygon points="-126.1,-7.9 -126.3,-8 -118,-16.2 -117.9,-16.1 				"/>
			</g>
		</g>
	</g>
	<rect x="-139" y="6" class="st2" width="35" height="32.5"/>
	<text transform="matrix(1 0 0 1 -139 8.1572)" style="font-family:'Helvetica-Bold'; font-size:3px;">Strokes</text>
	<text transform="matrix(1 0 0 1 -139 13.1572)" style="font-family:'Helvetica'; font-size:2.4px;">Try to keep strokes at 4px</text>
	<text transform="matrix(1 0 0 1 -139 18.1572)" style="font-family:'Helvetica'; font-size:2.4px;">Minimum stroke weight is 2px</text>
	<text transform="matrix(1 0 0 1 -139 22.6572)" style="font-family:'Helvetica'; font-size:2.4px;">For thicker strokes use even </text>
	<text transform="matrix(1 0 0 1 -139 25.6572)" style="font-family:'Helvetica'; font-size:2.4px;">numbers: 6px, 8px etc.</text>
	<text transform="matrix(1 0 0 1 -139 30.1572)" style="font-family:'Helvetica-Bold'; font-size:2.4px;">Remember to expand strokes </text>
	<text transform="matrix(1 0 0 1 -139 33.1572)" style="font-family:'Helvetica-Bold'; font-size:2.4px;">before saving as an SVG </text>
	<rect x="-96.5" y="6" class="st2" width="35" height="32.5"/>
	<text transform="matrix(1 0 0 1 -96.5 8.1572)" style="font-family:'Helvetica-Bold'; font-size:3px;">Size</text>
	<text transform="matrix(1 0 0 1 -96.5 13.1572)" style="font-family:'Helvetica'; font-size:2.4px;">Cannot be wider or taller than </text>
	<text transform="matrix(1 0 0 1 -96.5 16.6572)" style="font-family:'Helvetica'; font-size:2.4px;">100px (artboard size)</text>
	<text transform="matrix(1 0 0 1 -96.5 21.6572)" style="font-family:'Helvetica'; font-size:2.4px;">Scale your icon to fill as much of </text>
	<text transform="matrix(1 0 0 1 -96.5 24.6572)" style="font-family:'Helvetica'; font-size:2.4px;">the artboard as possible</text>
	<rect x="-54" y="6" class="st2" width="35" height="32.5"/>
	<text transform="matrix(1 0 0 1 -54 8.1572)" style="font-family:'Helvetica-Bold'; font-size:3px;">Ungroup</text>
	<text transform="matrix(1 0 0 1 -54 13.1572)" style="font-family:'Helvetica'; font-size:2.4px;">If your design has more than one </text>
	<text transform="matrix(1 0 0 1 -54 16.1572)" style="font-family:'Helvetica'; font-size:2.4px;">shape, make sure to ungroup</text>
	<rect x="-10" y="6" class="st2" width="35" height="32.5"/>
	<text transform="matrix(1 0 0 1 -10 8.1572)" style="font-family:'Helvetica-Bold'; font-size:3px;">Save as</text>
	<text transform="matrix(1 0 0 1 -10 13.1572)" style="font-family:'Helvetica'; font-size:2.4px;">Save as .SVG and make sure </text>
	<text transform="matrix(1 0 0 1 -10 16.1572)" style="font-family:'Helvetica'; font-size:2.4px;">“Use Artboards” is checked</text>
	<text transform="matrix(1.0074 0 0 1 -85.542 -21.4062)" style="font-family:'Helvetica'; font-size:2.5731px;">100px</text>
	<text transform="matrix(1.0074 0 0 1 -1 -13)" style="font-family:'Helvetica-Bold'; font-size:5.1462px;">.SVG</text>
	<rect x="-86.5" y="-17.2" width="10.3" height="10.2"/>
	<rect x="-86.5" y="-20.2" width="0.5" height="2.3"/>
	<rect x="-76.8" y="-20.2" width="0.5" height="2.3"/>
	<rect x="-87" y="-19.7" width="11.2" height="0.6"/>
	<g>
		<rect x="-43.8" y="-18.2" width="10.3" height="10.2"/>
		<rect x="-36.8" y="-23.3" width="3.3" height="3.3"/>
	</g>
	<rect x="-138.5" y="-29.5" class="st3" width="30" height="30"/>
	<rect x="-96.5" y="-29.5" class="st3" width="30" height="30"/>
	<rect x="-53.5" y="-29.5" class="st3" width="30" height="30"/>
	<rect x="-9.5" y="-29.5" class="st3" width="30" height="30"/>
</g>
<g>
	<polygon class="st4" points="125.4,-6.9 90,-24.6 57.5,-8.3 90,-24.6 54.6,-6.9 51.4,-8.5 90,-27.8 128.6,-8.5 	"/>
	<polygon class="st4" points="54.6,-10.1 90,7.7 122.5,-8.6 90,7.7 125.4,-10.1 128.6,-8.5 90,10.8 51.4,-8.5 	"/>
	<g>
		<polyline class="st4" points="66.6,-4 57.5,0.5 66.6,-4 54.6,2 51.4,0.4 63.4,-5.6 		"/>
	</g>
	<polyline class="st4" points="116.6,-5.6 128.6,0.4 125.4,2 113.4,-4 	"/>
	<polygon class="st4" points="54.6,-1.2 90,16.5 122.5,0.2 90,16.5 125.4,-1.2 128.6,0.4 90,19.7 51.4,0.4 	"/>
	<g>
		<polyline class="st4" points="66.6,4.8 57.5,9.4 66.6,4.8 54.6,10.8 51.4,9.2 63.4,3.2 		"/>
	</g>
	<polyline class="st4" points="116.6,3.2 128.6,9.2 125.4,10.8 113.4,4.8 	"/>
	<polygon class="st4" points="54.6,7.6 90,25.4 122.5,9.1 90,25.4 125.4,7.6 128.6,9.2 90,28.5 51.4,9.2 	"/>
</g>
</svg>
