<?xml version="1.0" encoding="utf-8"?>
<!-- Generator: Adobe Illustrator 19.1.0, SVG Export Plug-In . SVG Version: 6.00 Build 0)  -->
<svg version="1.1" id="Capa_1" xmlns="http://www.w3.org/2000/svg" xmlns:xlink="http://www.w3.org/1999/xlink" x="0px" y="0px"
	 viewBox="-589 351 100 100" style="enable-background:new -589 351 100 100;" xml:space="preserve">
<style type="text/css">
	.st0{fill:#A0A0A0;}
</style>
<g transform="translate(0.000000,2000.000000) scale(0.100000,-0.100000)">
	<path class="st0" d="M-5404.8,16293.7c-60.2-2.9-118.9-24-167.1-60.1c-13-9.8-21-16.7-33-28.7c-8.9-8.9-14.7-15.3-21.5-23.7
		c-32.9-40.7-54.8-89.2-63.4-140.5c-12.7-76.3,3.5-153.4,45.8-217.6c12-18.2,25.1-34.1,41-49.9c57-56.1,133-87.2,213-87.2
		c69.7,0,136.9,23.7,191.1,67.6c15,12.2,31.7,28.7,44,43.7c23.4,28.6,41.9,62,53.5,96.9c19.3,58,20.5,121.5,3.5,180.3
		c-11.2,38.7-30.2,75.1-55.7,106.6c-12.7,15.7-29.5,32.6-45.3,45.4c-54.5,44-122.2,67.8-192.2,67.4
		C-5395.9,16293.9-5402,16293.8-5404.8,16293.7z M-5378.8,16276c67.2-2.9,128.5-27.6,179-72.1c5.9-5.2,19.5-18.8,24.7-24.8
		c56.6-64.8,81-148.8,67.8-234.1c-8.8-57.6-36.6-112.7-77.8-154.8c-36.6-37.5-81.6-63.8-131.4-77c-53.9-14.3-111.5-12.5-164.4,5.2
		c-21.7,7.2-43.5,17.7-63.1,30.2c-31.3,20-59.1,46.5-80.7,77.4c-24.7,35.2-41.6,77.1-48.1,119c-9.1,59-0.4,117.5,25.3,170.1
		c18.8,38.5,45.3,71.5,78.8,98.5C-5515.3,16256.5-5447,16279-5378.8,16276z"/>
	<path class="st0" d="M-5394.3,16208.8c-2-1-3.5-2.7-4.2-4.7c-0.3-0.8-0.4-26.9-0.4-107.8v-106.8l0.8-1.9c1-2,2.2-3.3,4.4-4.2
		l1.3-0.6h74c63.4,0,74.2,0.1,75.6,0.4c2,0.6,4.8,3.2,5.5,5.4c1.5,4.3-0.6,9.1-4.8,11l-1.7,0.8l-68.7,0.1l-68.8,0.1l-0.1,101.5
		l-0.1,101.5l-0.7,1.3c-1.8,3.4-4.3,5-7.9,5C-5392,16209.7-5392.7,16209.6-5394.3,16208.8z"/>
</g>
</svg>
