<?xml version="1.0" encoding="utf-8"?>
<!-- Generator: Adobe Illustrator 19.1.0, SVG Export Plug-In . SVG Version: 6.00 Build 0)  -->
<svg version="1.1" id="Capa_1" xmlns="http://www.w3.org/2000/svg" xmlns:xlink="http://www.w3.org/1999/xlink" x="0px" y="0px"
	 viewBox="40 -40 100 100" style="enable-background:new 40 -40 100 100;" xml:space="preserve">
<style type="text/css">
	.st0{fill:#CCCCCC;}
</style>
<g>
	<path class="st0" d="M126.7-24.6c0-1.3-1.6-1.9-2.5-1.9h-0.3H123h-0.5c-1,0-1.7,0.5-2.4,1c-0.6,0.4-1.2,0.8-1.9,0.8
		c-0.7,0-1.3-0.5-2-1c-0.7-0.5-1.4-1.1-2.3-1.1c-8.4,0-13.3,0.1-15.9,2.2c-2.3,1.9-6.2,5.3-7.6,6.6c-0.2,0.2-0.7,0.7-0.5,1.3
		c0.1,0.1,0.3,0.6,0.9,0.6c0.4,0,0.9-0.1,1.9-0.4c1.7-0.5,4.2-1.2,6.6-1.2c3.3,0,4.9,1.4,5,4.2v3.2v53.6c0,1.9,1.5,3.5,3.4,3.5l0,0
		h3.3c1.9,0,3.4-1.6,3.4-3.5v-53.6c0-3.2,0.6-7.1,3.7-7.3c0.6,0,1.2,0.5,1.8,1.1c0.6,0.6,1.3,1.2,2.2,1.2h0.9h0.7
		c0.8,0,1.7-0.5,2.2-1.1c0.4-0.4,0.6-0.8,0.6-1.2C126.7-18.3,126.7-24.6,126.7-24.6z M111.2,45h-3.3c-1,0-1.8-0.8-1.8-1.9V-9.6h7
		v52.7C113,44.1,112.2,45,111.2,45z M125.1-17.8c-0.2,0.3-0.8,0.7-1.2,0.7h-0.7h-0.9c-0.2,0-0.7-0.4-1.1-0.8
		c-0.7-0.7-1.6-1.5-2.8-1.5h-0.1c-2.3,0.1-5,1.7-5.2,8.1h-7v-2.5c-0.2-2.6-1.4-5.7-6.6-5.7c-2.1,0-4.4,0.5-6.1,1
		c1.7-1.5,4.1-3.6,5.7-4.9c2.2-1.8,7.8-1.8,14.8-1.8c0.3,0,0.9,0.4,1.3,0.8c0.8,0.6,1.7,1.3,3,1.3c1.2,0,2.1-0.6,2.8-1.1
		c0.5-0.4,1-0.7,1.5-0.7h0.5h0.9h0.2c0.3,0,0.8,0.2,0.9,0.4C125.1-24.6,125.1-18.7,125.1-17.8z"/>
	<path class="st0" d="M71-26.1c-1.2-0.9-2.2-0.9-2.8-0.2c-0.3,0.4-0.5,1.1-0.3,1.8c0.1,0.3,0.2,0.9,0.4,1.7c0.4,1.7,0.9,4,1.2,5.3
		c0.4,1.6,0.3,2.9-0.3,3.8s-1.7,1.5-3.4,1.8c-0.7,0.1-1.4,0.2-1.9,0.2c-2.8,0-3.2-1.4-3.6-2.8l-0.1-0.3c-0.5-1.7-1.8-6.4-1.9-7
		c-0.2-0.8-1-1.4-1.9-1.4c-0.4,0-1.3,0.1-1.7,1.3c-0.4,1-2.9,11.7,0.1,16.6c1,1.6,2,2.6,2.9,3.6C59.4,0,60.6,1.2,60.6,5v36.5
		c0,2.8,2.2,5,5,5c2.8,0,5-2.2,5-5V4.2V3.8c0-2.1,0-4.9,2.1-6.3c5.3-3.4,7.1-7.6,5.4-13.1C76.8-19.6,72.7-24.8,71-26.1z M71.8-3.7
		C68.9-1.9,69,1.6,69,3.9v0.4v37.3c0,1.9-1.5,3.4-3.4,3.4c-1.9,0-3.4-1.5-3.4-3.4V5.1c0-4.4-1.6-6.1-3.4-7.8C57.9-3.6,57-4.5,56.1-6
		c-2.5-4-0.4-13.9,0.1-15.2c0.1-0.2,0.1-0.3,0.2-0.3c0.1,0,0.3,0.1,0.3,0.2c0.1,0.7,1.4,5.5,1.9,7.1l0.1,0.3
		c0.4,1.5,1.2,3.9,5.1,3.9c0.7,0,1.4-0.1,2.2-0.2c2.1-0.4,3.6-1.2,4.4-2.5c0.8-1.3,1-3,0.5-5.1c-0.3-1.2-0.8-3.6-1.2-5.2
		c-0.2-0.8-0.3-1.4-0.4-1.7c0-0.1,0-0.2,0-0.3c0.1,0,0.3,0.1,0.6,0.3c1.5,1.1,5.4,6.2,6.5,9.8C78-10.3,76.5-6.7,71.8-3.7z"/>
</g>
<circle class="st0" cx="-523.4" cy="387.7" r="1.6"/>
</svg>
