<?xml version="1.0" encoding="utf-8"?>
<!-- Generator: Adobe Illustrator 19.1.0, SVG Export Plug-In . SVG Version: 6.00 Build 0)  -->
<svg version="1.1" id="Capa_1" xmlns="http://www.w3.org/2000/svg" xmlns:xlink="http://www.w3.org/1999/xlink" x="0px" y="0px"
	 viewBox="-607 375.1 64 50.9" style="enable-background:new -607 375.1 64 50.9;" xml:space="preserve">
<style type="text/css">
	.st0{fill:#A0A0A0;}
</style>
<path class="st0" d="M-592.2,405.9h4.3l-3,3c-0.4,0.4-0.4,1.1,0,1.5l6,6c0.4,0.4,1.1,0.4,1.5,0l3-3v4.3c0,0.6,0.4,1.1,1.1,1.1h8.6
	c0.6,0,1.1-0.4,1.1-1.1v-4.3l3,3c0.4,0.4,1.1,0.4,1.5,0l6-6c0.4-0.4,0.4-1.1,0-1.5l-3-3h4.3c0.6,0,1.1-0.4,1.1-1.1v-8.6
	c0-0.6-0.4-1.1-1.1-1.1h-4.3l3-3c0.4-0.4,0.4-1.1,0-1.5l-6-6c-0.4-0.4-1.1-0.4-1.5,0l-3,3v-4.3c0-0.6-0.4-1.1-1.1-1.1h-8.6
	c-0.6,0-1.1,0.4-1.1,1.1v4.3l-3-3c-0.4-0.4-1.1-0.4-1.5,0l-6,6c-0.4,0.4-0.4,1.1,0,1.5l3,3h-4.3c-0.6,0-1.1,0.4-1.1,1.1v8.6
	C-593.2,405.5-592.8,405.9-592.2,405.9z M-591.1,397.3h3.9c0.4,0,0.9-0.2,1.1-0.6c0.2-0.4,0.2-0.9,0.4-1.1c0.2-0.4,0.2-0.9-0.2-1.3
	l-2.8-2.8l4.5-4.5l2.8,2.8c0.4,0.2,0.9,0.4,1.3,0.2c0.4-0.2,0.9-0.4,1.1-0.4c0.4-0.2,0.6-0.6,0.6-1.1v-3.9h6.4v3.9
	c0,0.4,0.2,0.9,0.6,1.1s0.9,0.2,1.1,0.4c0.4,0.2,0.9,0.2,1.3-0.2l2.8-2.8l4.5,4.5l-2.8,2.8c-0.2,0.2-0.4,0.9-0.2,1.3
	c0.2,0.4,0.4,0.9,0.4,1.1c0.2,0.4,0.6,0.6,1.1,0.6h3.9v6.4h-3.9c-0.4,0-0.9,0.2-1.1,0.6c-0.2,0.4-0.2,0.9-0.4,1.1
	c-0.2,0.4-0.2,0.9,0.2,1.3l2.8,2.8l-4.5,4.5l-2.8-2.8c-0.4-0.2-0.9-0.4-1.3-0.2c-0.4,0.2-0.9,0.4-1.1,0.4c-0.4,0.2-0.6,0.6-0.6,1.1
	v3.9h-6.4v-3.9c0-0.4-0.2-0.9-0.6-1.1s-0.9-0.2-1.1-0.4c-0.4-0.2-0.9-0.2-1.3,0.2l-2.8,2.8l-4.5-4.5l2.8-2.8
	c0.4-0.2,0.4-0.9,0.2-1.3c-0.2-0.4-0.4-0.9-0.4-1.1c-0.2-0.4-0.6-0.6-1.1-0.6h-3.9V397.3z"/>
<path class="st0" d="M-575,405.9c3,0,5.4-2.4,5.4-5.4c0-3-2.4-5.4-5.4-5.4s-5.4,2.4-5.4,5.4C-580.4,403.6-578,405.9-575,405.9z
	 M-575,397.3c1.7,0,3.2,1.5,3.2,3.2c0,1.7-1.5,3.2-3.2,3.2s-3.2-1.5-3.2-3.2C-578.2,398.8-576.7,397.3-575,397.3z"/>
</svg>
